<?xml version="1.0" encoding="UTF-8"?>
<svg version="1.1" xmlns="http://www.w3.org/2000/svg" width="16" height="16">
<path d="M0 0 C2.97 0.495 2.97 0.495 6 1 C7.125 6.625 7.125 6.625 6 10 C5.34 10 4.68 10 4 10 C3.67 11.65 3.34 13.3 3 15 C-0.96 15 -4.92 15 -9 15 C-8.443125 13.6696875 -8.443125 13.6696875 -7.875 12.3125 C-6.89215772 8.59173995 -7.23937836 7.32561865 -9 4 C-7.875 2.4375 -7.875 2.4375 -6 1 C-2.8125 1.3125 -2.8125 1.3125 0 2 C0 1.34 0 0.68 0 0 Z " fill="#A45E78" transform="translate(9,1)"/>
<path d="M0 0 C1.98 0.66 3.96 1.32 6 2 C6 2.99 6 3.98 6 5 C5.01 4.67 4.02 4.34 3 4 C3 4.99 3 5.98 3 7 C5.97 7.495 5.97 7.495 9 8 C9 8.66 9 9.32 9 10 C5.04 10 1.08 10 -3 10 C-2.21875 7.68880208 -1.4375 5.37760417 -0.65625 3.06640625 C0.05044718 1.20250304 0.05044718 1.20250304 0 0 Z " fill="#544741" transform="translate(3,6)"/>
<path d="M0 0 C2.97 0.495 2.97 0.495 6 1 C7.125 6.625 7.125 6.625 6 10 C5.34 10 4.68 10 4 10 C4 8.35 4 6.7 4 5 C3.01 5.33 2.02 5.66 1 6 C0.34 5.34 -0.32 4.68 -1 4 C-0.625 1.875 -0.625 1.875 0 0 Z " fill="#BC43C6" transform="translate(9,1)"/>
<path d="M0 0 C2.33944736 0.28730055 4.6739143 0.61936779 7 1 C7 2.32 7 3.64 7 5 C4.69 5 2.38 5 0 5 C-0.5625 3.0625 -0.5625 3.0625 -1 1 C-0.67 0.67 -0.34 0.34 0 0 Z " fill="#C3A083" transform="translate(6,9)"/>
<path d="M0 0 C1.65 0.33 3.3 0.66 5 1 C5 1.66 5 2.32 5 3 C4.01 3.495 4.01 3.495 3 4 C2.67 4.99 2.34 5.98 2 7 C0.4375 5.75 0.4375 5.75 -1 4 C-0.6875 1.8125 -0.6875 1.8125 0 0 Z " fill="#BC9E79" transform="translate(1,3)"/>
<path d="M0 0 C1.98 0.66 3.96 1.32 6 2 C6 2.99 6 3.98 6 5 C5.01 4.67 4.02 4.34 3 4 C2.34 4.66 1.68 5.32 1 6 C0.67 4.02 0.34 2.04 0 0 Z " fill="#654D52" transform="translate(3,6)"/>
<path d="M0 0 C2.97 0.495 2.97 0.495 6 1 C5.67 1.99 5.34 2.98 5 4 C3.35 4 1.7 4 0 4 C0 2.68 0 1.36 0 0 Z " fill="#B207F6" transform="translate(9,1)"/>
</svg>
